PathFileType	4	(X/Y/Z)	RBDS022\RBDS022runT45.trc
DataRate	CameraRate	NumFrames	NumMarkers	Units	OrigDataRate	OrigDataStartFrame	OrigNumFrames
150.000000	150.000000	4	32	mm	150.000000	0	4500
Frame#	Time	L.ASIS			L.Heel.Bottom			L.Heel.Lateral			L.Heel.Top			L.Iliac.Crest			L.MT1			L.MT5			L.PSIS			L.Shank.Bottom.Lateral			L.Shank.Bottom.Medial			L.Shank.Top.Lateral			L.Shank.Top.Medial			L.Thigh.Bottom.Lateral			L.Thigh.Bottom.Medial			L.Thigh.Top.Lateral			L.Thigh.Top.Medial			R.ASIS			R.Heel.Bottom			R.Heel.Lateral			R.Heel.Top			R.Iliac.Crest			R.MT1			R.MT5			R.PSIS			R.Shank.Bottom.Lateral			R.Shank.Bottom.Medial			R.Shank.Top.Lateral			R.Shank.Top.Medial			R.Thigh.Bottom.Lateral			R.Thigh.Bottom.Medial			R.Thigh.Top.Lateral			R.Thigh.Top.Medial			
		X1	Y1	Z1	X2	Y2	Z2	X3	Y3	Z3	X4	Y4	Z4	X5	Y5	Z5	X6	Y6	Z6	X7	Y7	Z7	X8	Y8	Z8	X9	Y9	Z9	X10	Y10	Z10	X11	Y11	Z11	X12	Y12	Z12	X13	Y13	Z13	X14	Y14	Z14	X15	Y15	Z15	X16	Y16	Z16	X17	Y17	Z17	X18	Y18	Z18	X19	Y19	Z19	X20	Y20	Z20	X21	Y21	Z21	X22	Y22	Z22	X23	Y23	Z23	X24	Y24	Z24	X25	Y25	Z25	X26	Y26	Z26	X27	Y27	Z27	X28	Y28	Z28	X29	Y29	Z29	X30	Y30	Z30	X31	Y31	Z31	X32	Y32	Z32	

1	0	2160.69581923894	945.5291527663551	902.8271142263065	1539.230122231841	199.2063776862047	1006.384851505405	1572.877756705695	192.0096899621658	958.7927932156974	1577.744992267264	224.1275477703894	1005.056528953763	2113.458510675579	1033.098922834025	856.5654039197941	1694.442899449193	50.98954891447012	1027.539286589311	1657.533542370657	69.11709411921241	917.7867917322307	1997.750570096423	1000.210335130162	976.7296627529473	1677.403137348276	260.2024272064	930.8665440337184	1650.786823135707	288.3941648711129	970.5980409487977	1717.328818794139	327.0598323846207	910.8028522198076	1691.076958166242	355.4115529957338	948.280663065859	1952.041506045084	615.6471060260515	869.7954810362564	1898.150530809224	647.1995017878686	908.2498438911915	1990.284210386606	714.785071261351	842.8723185560094	1939.784612897582	744.1108978379411	881.9405683481245	2158.296029615892	961.7358173676265	1134.56986375835	2077.718389244905	109.084847808161	1051.407195978318	2102.640426585315	123.9630844629093	1100.976266103581	2097.934767751642	148.490085204353	1051.543681955524	2098.759181815511	1035.148096624013	1180.806287963816	2284.936457084402	56.59525812072864	1057.45590053	2241.363372135488	67.4916696674931	1162.105107988989	1996.518692059685	997.0330604979088	1064.491373419701	2165.189034141192	229.947948904894	1124.80583900582	2138.35545813931	247.2035326650947	1085.620388829714	2189.004843910334	309.8175703231222	1141.760928232843	2156.156121191434	324.8719741677877	1102.650416535512	2264.562706702912	629.1622828288816	1163.988918255105	2207.746703073007	596.2885326335695	1136.065447391392	2201.903480265078	717.6818781630244	1188.308245656289	2147.463344251097	685.2632002704745	1163.004492742418	
2	0.006666666666666667	2162.734287494187	946.9723490302218	902.9929857067772	1530.434833491694	218.8844260590071	1006.330484446423	1562.382303598601	209.0609031438186	958.3026815638733	1570.60756462085	240.147490920718	1004.441293811045	2120.26247844424	1035.965230958469	857.6968220412938	1671.432800094044	58.46556355748635	1025.505694892127	1635.072023059046	79.97626669618317	917.0320582539254	2000.285703684657	1003.58138734007	976.0482448078683	1667.099566607886	269.9356812420705	929.4839658803751	1640.788914271763	298.3478532799186	969.40118746532	1708.144198237402	336.3812377962089	909.8541711726266	1682.296629511776	364.9847675979107	947.4996299759723	1948.927920187698	620.655448363886	870.4610587765561	1896.083169586356	653.1804351461913	909.3808237580469	1988.829145774072	719.0573886784555	843.0268992672638	1939.463562828971	749.3836576905707	882.8600877175612	2159.573927729655	964.0894566216582	1133.44289214769	2113.610332591827	94.47187950082048	1048.31653709594	2136.802596214796	110.4327379075105	1098.290721750435	2129.624774943969	134.9313255008755	1049.312467251242	2098.861531416538	1038.599459381351	1180.212798442621	2321.682382890492	62.71915569546415	1054.516975300266	2278.312953579549	67.17632150942063	1159.208621765484	1998.790659471988	1000.28535611979	1064.02808094304	2187.857498965228	221.8187382818923	1123.051025408892	2160.646568737995	237.3283102449467	1083.128415029335	2205.118321632247	302.28228653424	1140.847822502637	2172.296707198716	315.1278966502414	1101.263397303957	2261.722062545239	627.8669448749862	1165.065677995522	2204.680900790548	595.8783107084438	1136.727774433528	2200.528517966509	717.4458577351135	1188.606126031679	2145.702663802077	685.8434644326968	1163.034133340301	
3	0.01333333333333333	2164.696998074132	948.3326977771069	903.1651624110503	1521.828073309979	238.5953036110314	1006.3228544986	1552.098213138391	226.2667199306588	957.8619642280727	1563.571603256922	256.2739403394783	1003.901553383531	2126.638533170555	1038.779492422832	858.8168148223631	1648.852838873822	66.44824134928778	1023.458869167821	1613.095851661429	91.31095335644157	916.2272968700345	2002.718253023527	1006.815575948912	975.4171570489096	1657.094729820563	279.856792489883	928.17522400803	1631.186047417609	308.564479784594	968.260507067894	1699.398579770508	345.7265342739399	908.9461382952757	1674.048770749347	374.6464606418011	946.7463837794442	1946.343016188156	625.1488231235676	871.0818208583104	1894.413199355737	658.5398047479441	910.3827485577797	1987.729573205375	722.8938415588202	843.1853521284288	1939.345623567519	754.1142403055312	883.6653871644359	2160.760017570578	966.2959458425022	1132.392090189738	2148.713299342223	80.40622536058233	1045.302187460899	2170.261709395777	97.37867680116625	1095.668940202416	2160.561620942003	121.8349705279416	1047.198783956267	2098.943621631344	1041.832308265469	1179.655845716409	2357.264170944429	69.20527344864941	1051.439642961433	2314.398344593028	67.20755266410727	1156.177600266434	2000.950232857037	1003.383612675427	1063.607592856142	2209.902173852881	213.9892158367188	1121.343374566972	2182.323044065385	227.7875999797696	1080.720646317597	2220.745834394438	294.9632154165963	1139.941881424374	2187.948533602523	305.6403917724131	1099.903998824941	2258.777480128337	626.4385158324633	1166.21770428953	2201.563106966693	595.3804258957618	1137.357098434629	2199.022958863232	717.0567050929517	1189.020229716249	2143.86271745168	686.3030443155177	1163.077530806082	
4	0.02	2166.530331480947	949.5439009915541	903.3406491079468	1513.597423755768	258.4091993498443	1006.405193010074	1542.231027160953	243.8031326158892	957.5163453218378	1556.745721872558	272.6392233175391	1003.507246219714	2132.163498547736	1041.491428126422	859.9128380467337	1627.076382464467	75.44032341189288	1021.404168602568	1592.032336943899	103.5931365012471	915.3429930265775	2004.963211505673	1009.762345071262	974.8771824804102	1647.657427453502	290.1638981404925	927.009491437361	1622.332508281181	319.3045622502868	967.2297780182686	1691.483122000558	355.1437344682814	908.1220288081087	1666.807282691042	384.4988679304034	946.0517797165819	1944.74920641522	628.662149687818	871.6206098526776	1893.495583157444	662.721417705321	911.1579231629718	1987.295284411669	725.8994990029184	843.354908909152	1939.614900822427	757.8176681288306	884.270862461853	2161.77343278699	968.2284001232388	1131.484734336747	2182.275212700074	67.38029749165158	1042.419973398413	2202.346272768372	85.23061940218508	1093.153525672035	2190.054904698796	109.6210795869335	1045.281557299372	2098.99001856933	1044.666265987384	1179.165617846795	2390.646559097902	76.2342884363363	1048.118659246492	2348.808556114387	67.80062569471389	1152.909169510418	2002.896817161717	1006.173765249805	1063.263791059741	2230.759008363449	206.6962559681466	1119.708767170934	2202.835744114504	218.8498937390906	1078.447945029843	2235.443368571055	288.0320283481045	1139.033517712441	2202.67334668793	296.6202742949288	1098.571668694326	2255.64400796345	624.7673368678979	1167.489431015033	2198.349086791908	594.7182342528572	1137.915403189922	2197.274105794773	716.3821238931912	1189.635151458754	2141.873918765976	686.5341772516966	1163.137603601927	
